<?xml version="1.0" encoding="UTF-8"?>
<svg width="50px" height="50px" viewBox="0 0 50 50" version="1.1" xmlns="http://www.w3.org/2000/svg" xmlns:xlink="http://www.w3.org/1999/xlink">
    <!-- Generator: sketchtool 52.6 (67491) - http://www.bohemiancoding.com/sketch -->
    <title>7E09BC5C-DE26-43B7-91F0-0CBE07B920C2</title>
    <desc>Created with sketchtool.</desc>
    <g id="login" stroke="none" stroke-width="1" fill="none" fill-rule="evenodd">
        <g id="Forgot-Password" transform="translate(-660.000000, -249.000000)">
            <g id="login-lock" transform="translate(660.000000, 249.000000)">
                <g id="Filled_Icons_1_" fill="#000000" fill-rule="nonzero">
                    <g id="New_icons">
                        <g id="Group">
                            <path d="M6.25,32.2916667 C6.25,30.5645833 7.65,29.1666667 9.375,29.1666667 L29.1666667,29.1666667 L29.1666667,15.625 C29.1666667,15.05 28.7,14.5833333 28.125,14.5833333 L25,14.5833333 L25,10.4166667 C25,4.67291667 20.3270833,0 14.5833333,0 C8.83958333,0 4.16666667,4.67291667 4.16666667,10.4166667 L4.16666667,14.5833333 L1.04166667,14.5833333 C0.466666667,14.5833333 0,15.05 0,15.625 L0,36.4583333 C0,37.0333333 0.466666667,37.5 1.04166667,37.5 L6.25,37.5 L6.25,32.2916667 Z M15.625,22.5979167 L15.625,26.0416667 C15.625,26.6166667 15.1583333,27.0833333 14.5833333,27.0833333 C14.0083333,27.0833333 13.5416667,26.6166667 13.5416667,26.0416667 L13.5416667,22.5979167 C12.93125,22.2333333 12.5,21.59375 12.5,20.8333333 C12.5,19.6854167 13.4333333,18.75 14.5833333,18.75 C15.7333333,18.75 16.6666667,19.6854167 16.6666667,20.8333333 C16.6666667,21.59375 16.2354167,22.2333333 15.625,22.5979167 Z M6.25,10.4166667 C6.25,5.82083333 9.9875,2.08333333 14.5833333,2.08333333 C19.1791667,2.08333333 22.9166667,5.82083333 22.9166667,10.4166667 L22.9166667,14.5833333 L6.25,14.5833333 L6.25,10.4166667 Z" id="Shape"></path>
                            <path d="M48.9583333,31.25 L9.375,31.25 C8.8,31.25 8.33333333,31.7166667 8.33333333,32.2916667 L8.33333333,48.9583333 C8.33333333,49.5333333 8.8,50 9.375,50 L48.9583333,50 C49.5333333,50 50,49.5333333 50,48.9583333 L50,32.2916667 C50,31.7166667 49.5333333,31.25 48.9583333,31.25 Z M21.5708333,43.0125 C21.9770833,43.41875 21.9770833,44.0791667 21.5708333,44.4854167 C21.1645833,44.8916667 20.5041667,44.8916667 20.0979167,44.4854167 L17.7083333,42.0979167 L15.31875,44.4854167 C14.9125,44.8916667 14.2520833,44.8916667 13.8458333,44.4854167 C13.4395833,44.0791667 13.4395833,43.41875 13.8458333,43.0125 L16.2354167,40.625 L13.8458333,38.2375 C13.4395833,37.83125 13.4395833,37.1708333 13.8458333,36.7645833 C14.2520833,36.3583333 14.9125,36.3583333 15.31875,36.7645833 L17.7083333,39.1520833 L20.0958333,36.7645833 C20.5020833,36.3583333 21.1625,36.3583333 21.56875,36.7645833 C21.975,37.1708333 21.975,37.83125 21.56875,38.2375 L19.18125,40.625 L21.5708333,43.0125 Z M33.0291667,43.0125 C33.4354167,43.41875 33.4354167,44.0791667 33.0291667,44.4854167 C32.6229167,44.8916667 31.9625,44.8916667 31.55625,44.4854167 L29.1666667,42.0979167 L26.7791667,44.4854167 C26.3729167,44.8916667 25.7125,44.8916667 25.30625,44.4854167 C24.9,44.0791667 24.9,43.41875 25.30625,43.0125 L27.6958333,40.625 L25.30625,38.2375 C24.9,37.83125 24.9,37.1708333 25.30625,36.7645833 C25.7125,36.3583333 26.3729167,36.3583333 26.7791667,36.7645833 L29.1666667,39.1520833 L31.5541667,36.7645833 C31.9604167,36.3583333 32.6208333,36.3583333 33.0270833,36.7645833 C33.4333333,37.1708333 33.4333333,37.83125 33.0270833,38.2375 L30.6395833,40.625 L33.0291667,43.0125 Z M44.7916667,45.8333333 L36.4583333,45.8333333 C35.8833333,45.8333333 35.4166667,45.3666667 35.4166667,44.7916667 C35.4166667,44.2166667 35.8833333,43.75 36.4583333,43.75 L44.7916667,43.75 C45.3666667,43.75 45.8333333,44.2166667 45.8333333,44.7916667 C45.8333333,45.3666667 45.3666667,45.8333333 44.7916667,45.8333333 Z" id="Shape"></path>
                        </g>
                    </g>
                </g>
                <g id="Invisible_SHape">
                    <rect id="Rectangle" x="0" y="0" width="50" height="50"></rect>
                </g>
            </g>
        </g>
    </g>
</svg>