<?xml version="1.0" encoding="UTF-8"?>
<svg width="55px" height="29px" viewBox="0 0 55 29" version="1.1" xmlns="http://www.w3.org/2000/svg" xmlns:xlink="http://www.w3.org/1999/xlink">
    <!-- Generator: sketchtool 52.6 (67491) - http://www.bohemiancoding.com/sketch -->
    <title>3268B737-7E48-40CC-82B0-7956527A8240</title>
    <desc>Created with sketchtool.</desc>
    <g id="login" stroke="none" stroke-width="1" fill="none" fill-rule="evenodd">
        <g id="Login" transform="translate(-656.000000, -272.000000)">
            <g id="login" transform="translate(656.000000, 260.000000)">
                <g id="Filled_Icons_1_" transform="translate(0.000000, 12.000000)" fill="#000000" fill-rule="nonzero">
                    <g id="New_icons">
                        <path d="M49.2708333,0 L5.72916667,0 C2.57125,0 0,2.50292308 0,5.57692308 L0,23.4230769 C0,26.4970769 2.57125,29 5.72916667,29 L49.2708333,29 C52.42875,29 55,26.4970769 55,23.4230769 L55,5.57692308 C55,2.50292308 52.42875,0 49.2708333,0 Z M17.9964583,19.7512308 C17.5495833,20.1862308 16.823125,20.1884615 16.3739583,19.7512308 L12.601875,16.0793846 L8.82979167,19.7512308 C8.38291667,20.1862308 7.65645833,20.1862308 7.20958333,19.7512308 C6.76270833,19.3162308 6.76270833,18.6090769 7.20958333,18.1740769 L10.9816667,14.5 L7.20729167,10.8281538 C6.76041667,10.3931538 6.76041667,9.686 7.20729167,9.251 C7.65416667,8.816 8.380625,8.816 8.8275,9.251 L12.601875,12.9228462 L16.3739583,9.24876923 C16.8208333,8.81376923 17.5472917,8.81376923 17.9941667,9.24876923 C18.4410417,9.68376923 18.4433333,10.3909231 17.9964583,10.8281538 L14.224375,14.5 L17.99875,18.1718462 C18.445625,18.6090769 18.445625,19.3162308 17.9964583,19.7512308 Z M32.8945833,19.7512308 C32.4477083,20.1862308 31.72125,20.1884615 31.2720833,19.7512308 L27.5,16.0793846 L23.7279167,19.7512308 C23.2810417,20.1862308 22.5545833,20.1862308 22.1077083,19.7512308 C21.6608333,19.3162308 21.6608333,18.6090769 22.1077083,18.1740769 L25.8797917,14.5 L22.1054167,10.8281538 C21.6585417,10.3931538 21.6585417,9.686 22.1054167,9.251 C22.5522917,8.816 23.27875,8.816 23.725625,9.251 L27.5,12.9228462 L31.2720833,9.24876923 C31.7189583,8.81376923 32.4454167,8.81376923 32.8922917,9.24876923 C33.3391667,9.68376923 33.3414583,10.3909231 32.8922917,10.8281538 L29.1225,14.5 L32.8945833,18.1718462 C33.34375,18.6090769 33.34375,19.3162308 32.8945833,19.7512308 Z M46.9791667,20.0769231 L37.8125,20.0769231 C37.18,20.0769231 36.6666667,19.5772308 36.6666667,18.9615385 C36.6666667,18.3458462 37.18,17.8461538 37.8125,17.8461538 L46.9791667,17.8461538 C47.6116667,17.8461538 48.125,18.3458462 48.125,18.9615385 C48.125,19.5772308 47.6116667,20.0769231 46.9791667,20.0769231 Z" id="Shape"></path>
                    </g>
                </g>
                <g id="Invisible_SHape">
                    <rect id="Rectangle" x="0" y="0" width="55" height="55"></rect>
                </g>
            </g>
        </g>
    </g>
</svg>